Coordinates
version=1
nRows=8
nColumns=40
inDegrees=yes

Units are S.I. units (second, meters, Newtons, ...)
Angles are in degrees.

endheader
time	pelvis_tilt	pelvis_list	pelvis_rotation	pelvis_tx	pelvis_ty	pelvis_tz	hip_flexion_r	hip_adduction_r	hip_rotation_r	knee_angle_r	knee_angle_r_beta	ankle_angle_r	subtalar_angle_r	mtp_angle_r	hip_flexion_l	hip_adduction_l	hip_rotation_l	knee_angle_l	knee_angle_l_beta	ankle_angle_l	subtalar_angle_l	mtp_angle_l	lumbar_extension	lumbar_bending	lumbar_rotation	arm_flex_r	arm_add_r	arm_rot_r	elbow_flex_r	pro_sup_r	wrist_flex_r	wrist_dev_r	arm_flex_l	arm_add_l	arm_rot_l	elbow_flex_l	pro_sup_l	wrist_flex_l	wrist_dev_l
     17.53442857	     -5.50927126	     -3.92607199	     -0.31894110	      0.98930579	      0.93430213	      0.42089639	     37.62453511	     -7.18475525	     -7.27994574	     59.61087706	     59.61087706	      0.47405229	    -13.63902645	      0.75690803	     11.29522633	     -3.88050207	    -11.53329252	     17.15363543	     17.15363543	     13.97935723	     -2.69766344	     -1.94964190	    -11.76083130	      5.02518656	      2.41351197	      2.80656052	    -13.18869546	     -9.36850475	     42.72492289	     46.69058589	      0.00000000	      0.00000000	     22.53912563	    -17.55323915	      9.10500265	     54.50513052	     46.08308610	      0.00000000	      0.00000000
     17.54635714	     -5.52740240	     -3.81959993	     -0.33959149	      0.98863895	      0.93407145	      0.42077379	     37.95246458	     -7.13440787	     -7.42712416	     56.51048438	     56.51048438	      0.47086794	    -13.52976183	      0.77883602	     10.40848903	     -3.72390541	    -11.82996456	     16.49138121	     16.49138121	     14.15961361	     -2.11229716	     -2.45991546	    -11.81509195	      4.95059226	      2.31081488	      2.15456281	    -13.01066420	    -10.58359527	     37.29694837	     46.89253255	      0.00000000	      0.00000000	     23.71917070	    -18.11485180	      9.12167179	     57.02564734	     46.19678853	      0.00000000	      0.00000000
     17.55828571	     -5.57225432	     -3.75865005	     -0.31181250	      0.98808361	      0.93369567	      0.42068271	     38.09728039	     -7.04742384	     -7.70887104	     53.07754786	     53.07754786	      0.58574113	    -13.28103433	      1.16641487	      9.56219224	     -3.59274933	    -11.96545809	     15.84806917	     15.84806917	     14.46207055	     -1.66466635	     -2.58778868	    -11.84582827	      4.99915397	      2.52566848	      0.07639401	    -13.29213558	    -10.76257030	     35.37459329	     46.95407844	      0.00000000	      0.00000000	     25.25357157	    -18.11568009	      8.85815911	     58.55333181	     46.26030623	      0.00000000	      0.00000000
     17.57021429	     -5.54660703	     -3.53348298	     -0.35702373	      0.98768831	      0.93313628	      0.42073792	     38.05766973	     -7.02472958	     -7.84258511	     49.45061578	     49.45061578	      0.71136819	    -12.90852011	      1.34868040	      8.64286008	     -3.32729631	    -12.34126340	     15.26753905	     15.26753905	     14.75805203	     -1.00065910	     -2.94915587	    -11.96654250	      4.79668768	      2.98257268	     -1.70518830	    -13.46140600	    -11.23790872	     32.34522609	     47.07782756	      0.00000000	      0.00000000	     26.76810180	    -18.18924357	      8.82907555	     60.72255847	     46.32099561	      0.00000000	      0.00000000
     17.58214286	     -5.65239455	     -3.36802184	     -0.29852169	      0.98735799	      0.93225783	      0.42085468	     37.88486470	     -6.97486147	     -8.22403549	     45.41513078	     45.41513078	      0.25016799	    -12.64049475	      0.03286742	      7.91072132	     -3.13635930	    -12.63354917	     14.73770846	     14.73770846	     14.94378514	     -0.31399441	     -3.77076696	    -11.88136503	      4.67471249	      2.23289123	     -1.11709069	    -12.75318816	    -16.92613511	     25.74921623	     47.60439155	      0.00000000	      0.00000000	     27.04943888	    -19.26397010	      8.50233937	     64.03486179	     46.61496120	      0.00000000	      0.00000000
     17.59407143	     -5.71075791	     -3.23971367	     -0.23668981	      0.98720284	      0.93137519	      0.42102396	     37.48469447	     -6.85506133	     -8.72895967	     41.23851431	     41.23851431	      0.44675527	    -11.70808475	      0.56283701	      7.14085640	     -2.96248675	    -12.72642306	     14.26417376	     14.26417376	     15.30654325	      0.10520586	     -3.95488482	    -11.85661801	      4.62009709	      2.37899898	     -3.19279759	    -12.98559758	    -17.11234050	     24.59590373	     47.64290679	      0.00000000	      0.00000000	     28.27597236	    -19.32216864	      8.36678095	     65.57446683	     46.66513687	      0.00000000	      0.00000000
     17.60600000	     -5.72591601	     -2.98581649	     -0.20260608	      0.98733823	      0.93027059	      0.42132470	     36.93720594	     -6.81987769	     -9.27452135	     37.05356135	     37.05356135	      0.63489033	    -10.42142786	      0.95798355	      6.25317484	     -2.67306163	    -13.04486871	     13.71221535	     13.71221535	     15.67031058	      0.81753107	     -4.31001795	    -11.87407689	      4.38370722	      2.69486000	     -5.19721953	    -13.09594839	    -17.57887559	     23.21972169	     47.71220711	      0.00000000	      0.00000000	     29.32720415	    -19.47589820	      8.44166345	     68.08230251	     46.72540237	      0.00000000	      0.00000000
     17.61792857	     -5.76637934	     -2.81115375	     -0.11687339	      0.98764121	      0.92899650	      0.42175020	     36.21902912	     -6.66105339	     -9.97927621	     32.77546362	     32.77546362	      0.79414239	     -8.87734180	      1.56995483	      5.46110314	     -2.49640857	    -13.26820780	     13.29622359	     13.29622359	     16.02005963	      1.45369031	     -4.82644493	    -11.83206626	      4.25099566	      2.36696714	     -6.65514156	    -13.11570331	    -19.08898630	     21.91946409	     47.85862436	      0.00000000	      0.00000000	     29.59910377	    -20.24698749	      8.33957010	     71.23345501	     46.85842293	      0.00000000	      0.00000000
